<svg xmlns="http://www.w3.org/2000/svg" xml:space="preserve" viewBox="0 0 400 600">
  <path d="M118 601H1V1h400v600H118M54.004 261.938c.634 4.272-1.558 9.065 1.807 12.833l1.879-.212c-.292-5.339-.583-10.678-.252-15.476l4.85 14.97 1.82-.568-1.006-10.678 6.937 9.013 1.284-.714-2.36-9.023 7.533 4.573.814-.764-4.81-7.805 8.571 2.199.73-1.458c-3.235-2.267-6.47-4.533-8.891-6.822l11.166 1.153.32-1.519-9.691-4.142 11.17-1.765c-10.314-3.807-15.803-2.988-15.13 1.073l-8.845-.886-.368 1.3c3.563 1.637 7.126 3.274 9.935 4.813-4.364 2.754-7.528-1.206-12.448-3.236l4.978 7.389-2.451 1.862-3.49-6.6-.868.372c-.128 2.276-.256 4.552-.268 7.654-1.006.565-2.012 1.13-2.944.822l.737-9.008c-5.467 6.779-6.724 14.453-7.628 22.218l1.737.58c1.729-4.348 3.457-8.697 5.182-12.148m9-34.852 1.045-10.181c-5.046 6.422-7.029 13.494-5.828 21.555 1.637-3.56 3.275-7.122 4.813-9.966l.488 4.762 1.262-.172-5.009 7.08c4.208-.746 6.65-3.26 11.234-2.668 3.896.504 8.111-2.865 11.348-8.194l-9.97 2.681 4.626-7.205-.775-.894-8.094 4.966 3.108-9.285-1.656-.839c-2.189 3.059-4.378 6.118-6.593 8.36M47.69 256.704c-.128-.124-.257-.249.056-.881L51.7 249.6l-.758-.583-6.605 4.675-3.222-2.26 8.304-4.304-.346-1.262c-3.433.424-6.866.848-9.904.62L42.373 245c-1.898-.874-3.23-1.488-3.68-2.025l10.436 1.014.456-1.374-8.358-4.09 3.053-2.166 7.058 5c.129-4.265-6.297-6.344-1.893-10.3l4.44 7.947 1.146-.496c-.388-3.236-.776-6.472-.554-9.401.825-.102 2.368-.184 2.372-.308.123-4.496.103-8.997.103-13.496-4.271 4.157-2.417 9.068-3.649 13.273l-4.221-12.812-2.033.582 1.673 11.479-7.373-9.159-1.245.787 3.044 9.227-8.564-5.38-.644.803c1.588 2.413 3.176 4.827 4.375 7.608-.128.124-.256.248-1.123.268l-7.132-2.26-.679 1.524 8.294 6.214H25.75c4.966 2.258 8.578 3.901 11.324 5.544l-11.58 1.167.097 2.33c4.436.178 8.872.356 12.976 1.203l-11.646 4.001.423 1.47c3.537-.31 7.074-.62 10.622-.938l-8.643 6.761.862 1.393c2.58-.824 5.162-1.649 8.125-2.095.129.125.257.25-.02.924l-4.36 6.71.787.818c2.647-1.67 5.295-3.338 8.467-5.338l-3.529 10.37c5.799-2.986 9.541-9.935 8.034-15.075m246.876-24.44c3.066 4.107 6.049 3.997 8.453-.613 2.17-4.16 5.03-5.68 9.954-3.73-1.038 2.01-1.829 3.738-2.79 5.367-4.726 8.007-9.584 15.94-14.17 24.025-.793 1.398-1.083 3.648-.506 5.051.367.89 2.761 1.29 4.257 1.317 9.037.162 18.114-.33 27.103.363 6.47.499 9.71-.425 11.63-6.146.558-1.663.693-3.635.413-5.367-.304-1.883-.868-4.728-2.113-5.248-2.703-1.127-5.186-.16-6.697 3.101-1.874 4.043-7.268 5.328-11.457 2.812 5.056-8.894 10.122-17.804 15.185-26.716 4.546-8.002 1.877-9-5.272-8.543-6.868.44-13.859 1.124-20.632.321-8.46-1.003-10.36-.497-12.96 7.879-.62 2-.721 4.16-1.696 5.695-1.414-.277-2.86-.9-4.235-.767-4.011.388-5.53-1.315-5.06-5.186.094-.778-.105-1.592-.164-2.323-8.428-1.312-22.465 8.258-21 14.257l5.193.47c0 4.857-.56 9.579.184 14.085.56 3.395 2.04 7.312 4.447 9.58 4.157 3.915 15.777 2.527 19.542-1.826 1.044-1.207 1.303-3.585.983-5.245-.134-.695-2.925-1.601-4.143-1.226-3.474 1.07-4.673-.602-4.938-3.459-.246-2.64.08-5.332-.11-7.982-.239-3.358 1.3-4.584 4.44-4.203 4.437.538 6.06-1.529 6.16-5.743M95.088 259.046l.252 3.802c1.231.063 2.052.118 2.873.146 9.937.336 19.877.624 29.812 1.016 7.511.296 9.68-1.368 10.949-8.737.168-.975.54-2.061.277-2.933-.545-1.808-1.454-3.506-2.214-5.249-1.655.839-4.273 1.283-4.805 2.582-2.788 6.811-8.503 6.795-14.095 6.178-4.67-.514-2.962-4.81-2.994-7.609-.016-1.388 1.287-3.848 2.279-4.003 3.694-.578 3.205 2.75 3.806 4.99.067.254.48.415.737.615 5.009-.077 6.77-3.988 6.026-13.383-.459-5.797-1.598-6.787-6.714-5.893-.45 1.433-.578 3.09-1.436 4.161-.668.833-2.247.935-3.42 1.362-.479-2.074-1.329-4.154-1.299-6.22.018-1.278 1.307-3.574 2.142-3.63 4.508-.295 9.222-1.28 12.803 3.282.796 1.013 3.932.19 5.99.213-.223-2.973.054-6.118-.883-8.847-.466-1.357-3.16-2.756-4.843-2.75-7.937.024-15.87.56-23.808.844-2.878.103-5.783-.185-8.636.103-1.184.12-3.094 1.175-3.198 1.992-.157 1.24.902 2.682 1.575 3.97.866 1.653 2.532 3.18 2.681 4.865.583 6.566 1.194 13.206.772 19.752-.19 2.952.218 7.327-4.629 9.38m269.964-1.626c-2.062 5.365-1.336 6.537 4.125 6.576 3.491.024 6.984.066 10.473-.02 3.956-.099 4.948-2.064 4.011-5.855-1.163-4.703-2.352-9.514-2.547-14.318-.404-9.976-3.84-13.662-13.577-12.68-2.532.255-4.916 1.964-7.369 3.006-1.564-1.658-3.777-3.184-5.783-2.95-3.643.427-7.314 1.557-10.685 3.046-2.676 1.183-3.883 3.462-1.596 6.434 2.713 3.526 2.72 13.737.213 17.228-1.975 2.751-1.129 5.759 2.051 5.987 4.623.33 9.332.33 13.918-.232 1.307-.16 3.308-2.773 3.279-4.228-.092-4.68-1.185-9.333-1.443-14.021-.077-1.404 1.317-2.888 2.037-4.336 1.29 1.246 3.55 2.395 3.686 3.756.393 3.948-.067 7.982-.793 12.607m-143.062-13.31c-.155 4.87.52 9.7-2.49 14.305-1.912 2.926-.102 5.414 3.61 5.544 3.82.133 7.656.178 11.472-.009 3.775-.184 4.716-2.433 3.924-6.124-.92-4.28-1.293-8.735-1.303-13.115-.002-1.216 2.124-2.437 3.273-3.656 1.09 1.099 3.136 2.227 3.105 3.293-.139 4.659-.044 9.618-1.651 13.854-1.447 3.812-.065 5.28 2.7 5.625 4.257.531 8.654.408 12.944.023 2.42-.217 5.92-1.973 4.141-4.64-3.497-5.247-1.932-10.834-2.845-16.222-1.5-8.854-3.576-13.274-14.198-11.848-2.482.334-4.739 2.35-7.099 3.592l.416-1.351c-2.036-.792-4.027-2.031-6.121-2.241-1.837-.185-3.834.654-5.684 1.269-9.388 3.12-9.43 3.277-4.194 11.701m-11.833-11.062c-8.466-4.847-19.939-1.302-23.789 4.242-5.54 7.976-4.324 17.251 2.859 23.435 5.77 4.968 18.543 4.589 24.26-.743 1.94-1.81 3.404-4.174 1.222-6.29-.996-.966-4.046-1.047-5.357-.23-4.717 2.936-7.957.744-12.175-2.872 2.091-.688 3.44-1.45 4.825-1.525 3.48-.188 6.988-.246 10.463-.014 3.332.221 5.196-1.76 4.339-4.299-1.35-4.001-3.912-7.594-6.647-11.704m-61.064 15.362c2.133 3.875 4.085 7.864 6.441 11.598 3.645 5.779 7.462 5.495 10.736-.71 2.375-4.498 4.427-9.168 6.854-13.637 1.99-3.662 3.039-8.096 7.71-9.842.476-.178.633-3.434-.137-4.26-1.717-1.844-12.387-.201-14.993 2.176 2.986 3.542 2.99 7.032-1.295 10.045-1.719-2.097-4.731-3.388-1.828-7.191 1.632-2.137.473-5.22-2.71-5.42-5.63-.356-11.318-.36-16.943.031-3.212.224-4.438 3.427-2.72 5.522a190.563 190.563 0 0 1 8.885 11.688M81.091 237c-6.966.623-13.36 2.901-19.511 5.888l.609 2.038 22.286-6.032-.322-1.651c-.762-.08-1.523-.16-3.062-.243z"/>
  <path fill="#8C1DCC" d="M293.902 232.383c.34-2.086.44-4.247 1.06-6.246 2.6-8.376 4.5-8.882 12.96-7.879 6.774.803 13.765.12 20.633-.32 7.15-.459 9.818.54 5.272 8.542-5.063 8.912-10.13 17.822-15.185 26.716 4.19 2.516 9.583 1.231 11.457-2.812 1.51-3.26 3.994-4.228 6.697-3.1 1.245.52 1.809 3.364 2.113 5.247.28 1.732.145 3.704-.413 5.367-1.92 5.721-5.16 6.645-11.63 6.146-8.989-.694-18.066-.201-27.103-.363-1.496-.027-3.89-.426-4.257-1.317-.577-1.403-.287-3.653.506-5.05 4.586-8.087 9.444-16.019 14.17-24.026.961-1.629 1.752-3.357 2.79-5.367-4.924-1.95-7.783-.43-9.954 3.73-2.404 4.61-5.387 4.72-8.818.648-.365.035-.298.084-.298.084z"/>
  <path fill="#2740CC" d="M95.255 258.661c4.68-1.669 4.273-6.044 4.463-8.996.422-6.546-.189-13.186-.772-19.752-.15-1.685-1.815-3.212-2.68-4.866-.674-1.287-1.733-2.728-1.576-3.969.104-.817 2.014-1.873 3.198-1.992 2.853-.288 5.758 0 8.636-.103 7.937-.284 15.871-.82 23.808-.844 1.682-.006 4.377 1.393 4.843 2.75.937 2.729.66 5.874.884 8.847-2.059-.023-5.195.8-5.99-.213-3.582-4.562-8.296-3.577-12.804-3.281-.835.055-2.124 2.351-2.142 3.628-.03 2.067.82 4.147 1.299 6.221 1.173-.427 2.752-.53 3.42-1.362.858-1.07.985-2.728 1.436-4.16 5.116-.895 6.255.095 6.714 5.892.743 9.395-1.017 13.306-6.028 13.385-.254-.202-.668-.363-.735-.616-.6-2.241-.112-5.569-3.806-4.99-.992.154-2.295 2.614-2.28 4.002.033 2.8-1.676 7.095 2.995 7.61 5.592.616 11.307.632 14.095-6.18.532-1.298 3.15-1.742 4.805-2.58.76 1.742 1.669 3.44 2.214 5.248.263.872-.11 1.958-.277 2.933-1.27 7.37-3.438 9.033-10.95 8.737-9.934-.392-19.874-.68-29.81-1.016-.822-.028-1.643-.083-2.874-.146-.088-1.326-.17-2.564-.086-4.187z"/>
  <path fill="#8C1DCC" d="M365.353 257.107c.426-4.313.886-8.347.493-12.295-.135-1.36-2.396-2.51-3.686-3.756-.72 1.448-2.114 2.932-2.037 4.336.258 4.688 1.35 9.341 1.443 14.021.029 1.455-1.972 4.067-3.279 4.228-4.586.561-9.295.563-13.918.232-3.18-.228-4.026-3.236-2.05-5.987 2.507-3.491 2.499-13.702-.214-17.228-2.287-2.972-1.08-5.251 1.596-6.434 3.37-1.489 7.042-2.62 10.685-3.045 2.006-.235 4.219 1.291 5.783 2.949 2.453-1.042 4.837-2.751 7.369-3.006 9.738-.982 13.173 2.704 13.577 12.68.195 4.804 1.384 9.615 2.547 14.318.937 3.791-.055 5.756-4.01 5.854-3.49.087-6.983.045-10.474.02-5.461-.038-6.187-1.21-3.825-6.887z"/>
  <path fill="#2740CC" d="M221.974 243.684c-5.219-8-5.177-8.156 4.21-11.276 1.851-.615 3.848-1.454 5.685-1.27 2.094.21 4.085 1.45 6.121 2.242l-.416 1.351c2.36-1.242 4.617-3.258 7.099-3.592 10.622-1.426 12.698 2.994 14.198 11.848.913 5.388-.652 10.975 2.845 16.221 1.779 2.668-1.72 4.424-4.141 4.641-4.29.385-8.687.508-12.944-.023-2.765-.345-4.147-1.813-2.7-5.625 1.607-4.236 1.512-9.195 1.65-13.854.032-1.066-2.014-2.194-3.104-3.293-1.15 1.219-3.275 2.44-3.273 3.656.01 4.38.383 8.835 1.303 13.115.792 3.69-.149 5.94-3.924 6.124-3.816.187-7.652.142-11.472.009-3.712-.13-5.522-2.618-3.61-5.544 3.01-4.605 2.335-9.435 2.473-14.73zM210.501 233.22c2.392 3.937 4.954 7.53 6.304 11.531.857 2.539-1.007 4.52-4.34 4.299-3.474-.232-6.983-.174-10.462.014-1.386.074-2.734.837-4.825 1.525 4.218 3.616 7.458 5.808 12.175 2.871 1.31-.816 4.361-.735 5.357.23 2.182 2.117.718 4.482-1.222 6.291-5.717 5.332-18.49 5.711-24.26.743-7.183-6.184-8.399-15.459-2.859-23.435 3.85-5.544 15.323-9.09 24.132-4.07zM293.825 232.293c.641 4.185-.982 6.252-5.418 5.714-3.141-.381-4.68.845-4.44 4.203.188 2.65-.137 5.341.109 7.982.265 2.857 1.464 4.53 4.938 3.459 1.218-.375 4.009.53 4.143 1.226.32 1.66.061 4.038-.983 5.245-3.765 4.353-15.385 5.741-19.542 1.825-2.407-2.267-3.887-6.184-4.447-9.579-.744-4.506-.184-9.228-.184-14.085l-5.193-.47c-1.465-5.999 12.572-15.569 21-14.257.059.73.258 1.545.164 2.323-.47 3.871 1.049 5.574 5.06 5.186 1.374-.133 2.821.49 4.553 1.043.317.275.25.226.24.185zM149.006 248.047c-2.986-4.022-5.84-7.717-8.798-11.326-1.717-2.095-.49-5.298 2.72-5.522a128.287 128.287 0 0 1 16.944-.032c3.183.201 4.342 3.284 2.71 5.421-2.903 3.803.11 5.094 1.828 7.19 4.286-3.012 4.28-6.502 1.295-10.044 2.606-2.377 13.276-4.02 14.993-2.176.77.826.613 4.082.138 4.26-4.672 1.746-5.721 6.18-7.711 9.842-2.427 4.469-4.48 9.14-6.854 13.638-3.274 6.204-7.09 6.488-10.736.709-2.356-3.734-4.308-7.723-6.53-11.96z"/>
  <path fill="#6D10A3" d="M37.941 243.003 25.75 237.46h11.925l-8.294-6.214.68-1.524c2.377.754 4.754 1.507 7.621 2.557.91.346 1.329.396 1.748.446l-.726-1.379-4.764-7.24.644-.804 8.564 5.381-3.044-9.227 1.245-.787 7.373 9.159-1.673-11.48 2.033-.58c1.407 4.27 2.814 8.54 4.528 12.955.306.144.257.08.257.08l1.164 9.708-1.147.496-4.44-7.947c-4.403 3.956 2.023 6.035 1.894 10.3l-7.058-5-3.053 2.166 8.358 4.09-.456 1.374c-3.478-.338-6.957-.676-10.84-1.028-.406-.014-.348.042-.348.042m5.634-13.594 1.116.694c-.18-.322-.361-.645-1.116-.694zM72.096 252.028l9.705 6.8-.73 1.458-8.572-2.199 4.811 7.805-.814.764-7.532-4.573 2.359 9.023-1.284.714-6.937-9.013 1.006 10.678-1.82.568c-1.617-4.99-3.233-9.98-5.149-15.212-.298-.243-.335-.193-.335-.193l.384-6.828.867-.372c1.154 2.18 2.307 4.361 3.49 6.6l2.452-1.862-4.978-7.39c4.92 2.031 8.084 5.991 12.791 3.263.344.026.286-.031.286-.031m-.427 5.347-.223-1.118c-.227.099-.593.153-.645.31-.059.18.161.451.868.808m-3.83 4.485c.106-.302.237-.598.3-.91.015-.07-.204-.19-.316-.287-.178.298-.356.597.015 1.197zM37.928 257.917l-7.743 2.473-.862-1.393 8.638-6.758c-3.543.314-7.08.625-10.617.935l-.423-1.47c3.882-1.334 7.764-2.668 11.783-4.307.137-.306.07-.259.07-.259l10.3-1.272.345 1.262-8.304 4.304 3.222 2.26 6.605-4.675.758.583c-1.318 2.074-2.636 4.148-4.376 6.656-.511.79-.602 1.146-.694 1.502l1.441-.676c1.125 4.762-2.617 11.711-8.416 14.697l3.53-10.37-8.468 5.338-.787-.818c1.453-2.236 2.906-4.473 4.763-7.165.494-.81.586-1.166.677-1.523l-1.442.676m6.267 2.938.492-.982c-.36.252-.721.505-.492.982zM63.03 227.902l6.566-9.176 1.656.839-3.108 9.285 8.094-4.966.775.894-4.625 7.205 9.969-2.681c-3.237 5.329-7.452 8.698-11.348 8.194-4.583-.592-7.026 1.922-11.234 2.668l5.01-7.08-1.263.172a154.85 154.85 0 0 1-.462-5.087c.027-.324-.03-.267-.03-.267m6.63 6.293.917.46.18-.781c-.228-.044-.456-.087-1.097.32z"/>
  <path fill="#6D10A3" d="M72.187 252.108a6608.26 6608.26 0 0 1-10.655-4.888l.368-1.3 8.838.885c-.666-4.06 4.823-4.879 15.137-1.072l-11.17 1.765 9.69 4.142-.319 1.519a885.947 885.947 0 0 0-11.573-1.142c-.407.01-.35.068-.316.091zM54.008 261.04l-5.186 13.047-1.737-.58c.904-7.766 2.161-15.44 7.628-22.219-.245 3.002-.491 6.005-.749 9.409-.012.4.044.343.044.343zM63.11 227.81c-1.614 3.528-3.252 7.09-4.89 10.65-1.2-8.061.783-15.133 5.829-21.555-.349 3.394-.697 6.787-1.033 10.59.013.407.071.35.094.316zM81.48 237.001c1.15.081 1.911.162 2.673.242l.322 1.65-22.286 6.033-.61-2.038c6.151-2.987 12.546-5.265 19.9-5.887zM38.87 247.062c-4.407-.206-8.843-.384-13.279-.561l-.096-2.33c3.86-.39 7.72-.779 12.013-1.168.433 0 .375-.056.339-.08 1.295.59 2.628 1.203 4.526 2.077-1.377.639-2.29 1.062-3.402 1.812-.197.326-.13.28-.102.25z"/>
  <path fill="#6D10A3" d="M56.828 258.57c.279 5.311.57 10.65.862 15.99l-1.88.211c-3.364-3.768-1.172-8.561-1.804-13.282.002-.45-.054-.391-.079-.356.981-.53 1.987-1.094 2.935-2.072-.058-.413-.021-.463-.034-.491zM53.945 228.895c.59-4.522-1.264-9.433 3.007-13.59 0 4.5.02 9-.103 13.496-.004.124-1.547.206-2.677.154-.305-.153-.256-.089-.227-.06z"/>
  <path d="M43.862 229.272c.468.186.648.509.829.83-.372-.23-.744-.462-.829-.83zM38.51 231.53c.436.275.678.734.92 1.194-.42-.05-.838-.1-1.378-.395.007-.368.135-.492.458-.8zM71.365 257.312c-.403-.294-.623-.565-.564-.745.052-.157.418-.211.645-.31.074.372.148.745-.081 1.055zM67.564 261.709c-.097-.45.08-.748.259-1.046.112.097.331.216.317.288-.064.31-.195.607-.576.758zM38.119 258.106c.29-.414.77-.64 1.25-.865-.09.357-.182.713-.473 1.249-.329.055-.457-.07-.777-.384zM47.88 256.893c-.289.415-.77.64-1.25.865.092-.356.183-.712.474-1.248.328-.055.457.07.776.383zM43.9 260.742c.066-.364.427-.617.787-.869-.164.328-.328.655-.787.87zM69.866 233.97c.435-.183.663-.14.891-.096l-.18.78c-.306-.153-.611-.306-.71-.685z"/>
</svg>
